<svg width="20" height="20" viewBox="0 0 20 20" fill="none" xmlns="http://www.w3.org/2000/svg">
<g clip-path="url(#clip0_4464_89)">
<path d="M10 1V3" stroke="black" stroke-width="1.5" stroke-linecap="round" stroke-linejoin="round"/>
<path d="M5 5L3.5 3.5" stroke="black" stroke-width="1.5" stroke-linecap="round" stroke-linejoin="round"/>
<path d="M3 10H1" stroke="black" stroke-width="1.5" stroke-linecap="round" stroke-linejoin="round"/>
<path d="M5 15L3.5 16.5" stroke="black" stroke-width="1.5" stroke-linecap="round" stroke-linejoin="round"/>
<path d="M10 17V19" stroke="black" stroke-width="1.5" stroke-linecap="round" stroke-linejoin="round"/>
<path d="M15 15L16.5 16.5" stroke="black" stroke-width="1.5" stroke-linecap="round" stroke-linejoin="round"/>
<path d="M17 10H19" stroke="black" stroke-width="1.5" stroke-linecap="round" stroke-linejoin="round"/>
<path d="M15 5L16.5 3.5" stroke="black" stroke-width="1.5" stroke-linecap="round" stroke-linejoin="round"/>
<path d="M10 14C11.3333 14 14 13.2 14 10C14 8.73721 13.5847 7.84816 13 7.23453L7.24644 13C8.12213 13.7563 9.26413 14 10 14Z" fill="black"/>
<path d="M13 7.23453C12.103 6.29319 10.8072 6 10 6C8.66667 6 6 6.8 6 10C6 11.4339 6.53545 12.3859 7.24644 13M13 7.23453C13.5847 7.84816 14 8.73721 14 10C14 13.2 11.3333 14 10 14C9.26413 14 8.12213 13.7563 7.24644 13M13 7.23453L7.24644 13" stroke="black" stroke-linejoin="round"/>
</g>
<defs>
<clipPath id="clip0_4464_89">
<rect width="20" height="20" fill="white"/>
</clipPath>
</defs>
</svg>
