<svg width="20" height="20" viewBox="0 0 20 20" fill="none" xmlns="http://www.w3.org/2000/svg">
<g clip-path="url(#clip0_4464_99)">
<path d="M19.1667 9.99992C19.1667 15.0833 15.8333 19.1666 10 19.1666V0.833252C15.8333 0.833252 19.1667 4.91658 19.1667 9.99992Z" fill="black"/>
<path d="M10 20C9.50002 20 9.16669 19.6667 9.16669 19.1667V0.833333C9.16669 0.333333 9.50002 0 10 0C15.9167 0 20 4.08333 20 10C20 15.9167 15.9167 20 10 20ZM10.8334 1.66667V18.3333C16 17.9167 18.3334 14 18.3334 10C18.3334 6 16 2.08333 10.8334 1.66667Z" fill="black"/>
<path d="M10 20C4.5 20 0 15.5 0 10C0 4.5 4.5 0 10 0C10.5 0 10.8333 0.333333 10.8333 0.833333V19.1667C10.8333 19.6667 10.5 20 10 20ZM9.16667 1.66667C5 2.16667 1.66667 5.66667 1.66667 10C1.66667 14.3333 5 17.8333 9.16667 18.3333V1.66667Z" fill="black"/>
</g>
<defs>
<clipPath id="clip0_4464_99">
<rect width="20" height="20" fill="white"/>
</clipPath>
</defs>
</svg>
