<svg width="19" height="20" viewBox="0 0 19 20" fill="none" xmlns="http://www.w3.org/2000/svg">
<path d="M8.19231 14.4231H1V2H7.53846M8.19231 14.4231V19H18V9.19231M8.19231 14.4231V6.57692H10.8077M18 9.19231H14.7308V6.57692M18 9.19231L14.7308 6.57692M14.7308 6.57692H10.8077M10.8077 6.57692V5.26923M10.8077 5.26923H7.53846V2M10.8077 5.26923L7.53846 2M1.65385 15.7308C1.65385 16.3846 2.04615 17.6923 3.61538 17.6923H6.88462M6.88462 17.6923L5.57692 16.5714M6.88462 17.6923L5.57692 19" stroke="black" stroke-linecap="round" stroke-linejoin="round"/>
<path d="M17.2307 5.26929C17.2307 4.61544 16.8384 3.30775 15.2692 3.30775L11.9999 3.30775M11.9999 3.30775L13.3076 4.42863M11.9999 3.30775L13.3076 2.00006" stroke="black" stroke-linecap="round" stroke-linejoin="round"/>
</svg>
