<svg width="20" height="20" viewBox="0 0 20 20" fill="none" xmlns="http://www.w3.org/2000/svg">
<g clip-path="url(#clip0_4464_151)">
<path d="M0.5 8C0.5 8.27614 0.723858 8.5 1 8.5L19 8.5C19.2406 8.5 19.4471 8.32866 19.4914 8.09219C19.5358 7.85573 19.4055 7.6212 19.1812 7.534L1.18122 0.533997C1.02739 0.474171 0.853933 0.494124 0.717699 0.587318C0.581463 0.680512 0.5 0.834938 0.5 0.999999L0.5 8Z" stroke="black" stroke-linejoin="round"/>
<path d="M0.5 12C0.5 11.7239 0.723856 11.5 1 11.5L19 11.5C19.2406 11.5 19.4471 11.6713 19.4914 11.9078C19.5358 12.1443 19.4055 12.3788 19.1812 12.466L1.18122 19.466C1.02738 19.5258 0.853933 19.5059 0.717697 19.4127C0.581463 19.3195 0.5 19.1651 0.5 19L0.5 12Z" fill="black" stroke="black" stroke-linejoin="round"/>
</g>
<defs>
<clipPath id="clip0_4464_151">
<rect width="20" height="20" fill="white" transform="translate(20) rotate(90)"/>
</clipPath>
</defs>
</svg>
