<svg width="20" height="20" viewBox="0 0 20 20" fill="none" xmlns="http://www.w3.org/2000/svg">
<g clip-path="url(#clip0_4464_113)">
<path d="M8 19.5C8.27614 19.5 8.5 19.2761 8.5 19V1C8.5 0.759411 8.32866 0.552934 8.09219 0.508573C7.85573 0.464212 7.6212 0.594547 7.534 0.818777L0.533998 18.8188C0.474172 18.9726 0.494125 19.1461 0.587319 19.2823C0.680513 19.4185 0.834939 19.5 1 19.5H8Z" stroke="black" stroke-linejoin="round"/>
<path d="M12 19.5C11.7239 19.5 11.5 19.2761 11.5 19V1C11.5 0.759411 11.6713 0.552934 11.9078 0.508573C12.1443 0.464212 12.3788 0.594547 12.466 0.818777L19.466 18.8188C19.5258 18.9726 19.5059 19.1461 19.4127 19.2823C19.3195 19.4185 19.1651 19.5 19 19.5H12Z" fill="black" stroke="black" stroke-linejoin="round"/>
</g>
<defs>
<clipPath id="clip0_4464_113">
<rect width="20" height="20" fill="white"/>
</clipPath>
</defs>
</svg>
