<svg width="20" height="20" viewBox="0 0 20 20" fill="none" xmlns="http://www.w3.org/2000/svg">
<g clip-path="url(#clip0_4464_117)">
<path d="M0 20V0H20V20H0ZM9.97417 16.1869V18.2941H11.6408V16.1869H13.3333V14.147H11.6408V12.0398H13.3333V10H11.6408V7.92594H13.3333V5.88613H11.6408V3.7789H13.3333V1.70484H11.6408V3.7789H9.97417V1.70484H8.28167V3.7789H6.66667V1.70484H1.32833V18.293H8.28167V16.1858L9.97417 16.1869ZM9.97417 3.7789V5.8872H8.28167V3.7789H9.97417ZM6.66667 7.92701V5.8872H8.28167V7.92701H6.66667ZM11.6408 7.92594L9.97417 7.92701V5.8872L11.6408 5.88613V7.92594ZM8.28167 7.92701H9.97417V10.0011H8.28167V7.92701ZM6.66667 12.0398V10L8.28167 10.0011V12.0398H6.66667ZM11.6408 12.0398H9.97417V10.0011L11.6408 10V12.0398ZM8.28167 14.147V12.0398H9.97417V14.147H8.28167ZM6.66667 16.1869V14.147H8.28167V16.1858L6.66667 16.1869ZM9.97417 14.147H11.6408V16.1869H9.97417V14.147Z" fill="black"/>
</g>
<defs>
<clipPath id="clip0_4464_117">
<rect width="20" height="20" fill="white"/>
</clipPath>
</defs>
</svg>
