<svg width="20" height="20" viewBox="0 0 20 20" fill="none" xmlns="http://www.w3.org/2000/svg">
<path d="M8.33334 4.44455L12.2222 2.22233L7.22223 0.555664" stroke="black" stroke-linecap="round" stroke-linejoin="round"/>
<path d="M3.26425 13.8888C2.52974 12.6166 2.17053 11.1624 2.22823 9.6945C2.28593 8.22662 2.75816 6.80503 3.59028 5.59437C4.42238 4.38373 5.58033 3.43349 6.9301 2.85366C8.2799 2.27383 9.76623 2.0881 11.2172 2.318" stroke="black" stroke-linecap="round"/>
<path d="M11.6667 15L7.77777 17.2222L12.7778 18.8889" stroke="black" stroke-linecap="round" stroke-linejoin="round"/>
<path d="M16.7357 5.5555C17.4703 6.82772 17.8295 8.28194 17.7718 9.74983C17.7141 11.2177 17.2418 12.6393 16.4097 13.85C15.5776 15.0606 14.4197 16.0108 13.0699 16.5907C11.7201 17.1705 10.2338 17.3562 8.78277 17.1263" stroke="black" stroke-linecap="round"/>
</svg>
