<svg width="20" height="20" viewBox="0 0 20 20" fill="none" xmlns="http://www.w3.org/2000/svg">
<g clip-path="url(#clip0_4464_127)">
<path d="M17 2.85864V17.1415C17.5078 16.6438 17.9627 16.0923 18.3555 15.4963C19.1978 14.1834 20 12.28 20 10.0001C20 7.72015 19.1978 5.81687 18.3555 4.50395C17.9627 3.90792 17.5078 3.35642 17 2.85864Z" fill="#212121"/>
<path d="M17 17.1413V2.85849C15.6495 1.53462 13.9252 0.590745 12 0.199951V19.7999C13.9252 19.4091 15.6495 18.4652 17 17.1413Z" fill="#404040"/>
<path d="M11.2562 19.9219C11.5072 19.8904 11.7552 19.8497 12 19.8V0.200036C11.7539 0.150083 11.5045 0.109166 11.2522 0.0776478C10.8506 0.0275373 10.4328 0 10 0C9.56582 0 9.14667 0.0277198 8.74378 0.0781447C8.49284 0.109596 8.2448 0.150345 8 0.200037V19.8C8.23309 19.8473 8.46912 19.8865 8.70779 19.9173C8.76956 19.9253 8.83172 19.9327 8.89425 19.9395C9.05269 19.957 9.21356 19.9708 9.37681 19.9809C9.47703 19.987 9.57815 19.9918 9.68014 19.995L9.74392 19.9968C9.82902 19.9989 9.91438 20 10 20C10.4342 20 10.8533 19.9723 11.2562 19.9219Z" fill="#535353"/>
<path d="M8 19.7999V0.199951C6.0748 0.590745 4.35045 1.53461 3 2.85848V17.1413C4.35045 18.4652 6.07481 19.4091 8 19.7999Z" fill="#727272"/>
<path fill-rule="evenodd" clip-rule="evenodd" d="M18.3555 15.4962C19.395 13.919 20 12.0302 20 10C20 12.2799 19.1978 14.1833 18.3555 15.4962ZM20 10C20 7.96985 19.395 6.081 18.3555 4.50388C19.1978 5.8168 20 7.72008 20 10ZM0 10C0 12.0302 0.604981 13.919 1.6445 15.4962C0.802186 14.1833 0 12.2799 0 10ZM1.64449 4.50384C0.802181 5.81676 0 7.72006 0 10C0 7.96983 0.604979 6.08096 1.64449 4.50384ZM8.74378 0.0781447C9.14667 0.0277198 9.56582 0 10 0C9.57453 0 9.15527 0.0265709 8.74378 0.0781447ZM10 0C10.4328 0 10.8506 0.0275373 11.2522 0.0776478C10.842 0.0264005 10.4241 0 10 0Z" fill="#272727"/>
<path d="M3 17.1415V2.85864C2.49249 3.35615 2.0378 3.90734 1.64509 4.503L1.64449 4.50391C0.802181 5.81683 0 7.72013 0 10.0001C0 12.28 0.802186 14.1834 1.6445 15.4963C2.03734 16.0923 2.49224 16.6438 3 17.1415Z" fill="#B7B7B7"/>
<circle cx="10" cy="10" r="9.75" stroke="black" stroke-width="0.5"/>
</g>
<defs>
<clipPath id="clip0_4464_127">
<rect width="20" height="20" fill="white"/>
</clipPath>
</defs>
</svg>
