<svg width="16" height="16" viewBox="0 0 16 16" fill="none" xmlns="http://www.w3.org/2000/svg">
<path d="M8 10L7.64645 10.3536L8 10.7071L8.35355 10.3536L8 10ZM8.5 1C8.5 0.723858 8.27614 0.5 8 0.5C7.72386 0.5 7.5 0.723858 7.5 1L8.5 1ZM2.64645 5.35355L7.64645 10.3536L8.35355 9.64645L3.35355 4.64645L2.64645 5.35355ZM8.35355 10.3536L13.3536 5.35355L12.6464 4.64645L7.64645 9.64645L8.35355 10.3536ZM8.5 10L8.5 1L7.5 1L7.5 10L8.5 10Z" fill="#000000"/>
<path d="M1 12L1 13C1 14.1046 1.89543 15 3 15L13 15C14.1046 15 15 14.1046 15 13V12" stroke="#000000"/>
</svg>
